<?xml version="1.0" encoding="iso-8859-1"?>
<!-- Uploaded to: SVG Repo, www.svgrepo.com, Generator: SVG Repo Mixer Tools -->
<svg version="1.1" id="Layer_1" xmlns="http://www.w3.org/2000/svg" xmlns:xlink="http://www.w3.org/1999/xlink" 
	 viewBox="0 0 511.988 511.988" xml:space="preserve">
<rect x="42.655" y="10.663" style="fill:#E6E9ED;" width="298.67" height="415.98"/>
<path style="fill:#434A54;" d="M341.32,0H42.655c-5.891,0-10.656,4.773-10.656,10.664v415.983c0,5.906,4.766,10.688,10.656,10.688
	H341.32c5.89,0,10.671-4.781,10.671-10.688V10.663C351.991,4.773,347.21,0,341.32,0z M330.648,415.99H53.327V21.335h277.322V415.99
	H330.648z"/>
<polygon style="fill:#FFCE54;" points="266.649,53.334 117.325,53.334 95.997,0 287.993,0 "/>
<path style="fill:#F6BB42;" d="M213.323,10.663h-42.671c-5.891,0-10.656,4.781-10.656,10.671s4.766,10.664,10.656,10.664h42.671
	c5.89,0,10.671-4.773,10.671-10.664S219.213,10.663,213.323,10.663z"/>
<g>
	<path style="fill:#434A54;" d="M287.509,255.994H96.466c-5.891,0-10.656-4.773-10.656-10.664s4.766-10.672,10.656-10.672h191.042
		c5.891,0,10.672,4.781,10.672,10.672S293.399,255.994,287.509,255.994z"/>
	<path style="fill:#434A54;" d="M287.509,298.649H96.466c-5.891,0-10.656-4.766-10.656-10.656s4.766-10.656,10.656-10.656h191.042
		c5.891,0,10.672,4.766,10.672,10.656S293.399,298.649,287.509,298.649z"/>
	<path style="fill:#434A54;" d="M191.995,341.336H96.466c-5.891,0-10.656-4.781-10.656-10.688c0-5.875,4.766-10.656,10.656-10.656
		h95.529c5.89,0,10.656,4.781,10.656,10.656C202.651,336.555,197.886,341.336,191.995,341.336z"/>
</g>
<g>
	<path style="fill:#DA4453;" d="M202.651,191.995c-2.719,0-5.453-1.039-7.531-3.125c-4.171-4.164-4.171-10.921,0-15.085
		l63.998-63.999c4.156-4.164,10.906-4.164,15.078,0s4.172,10.922,0,15.086l-63.998,63.998
		C208.12,190.956,205.386,191.995,202.651,191.995z"/>
	<path style="fill:#DA4453;" d="M202.651,191.995c-1.938,0-3.891-0.523-5.656-1.625l-85.326-53.327
		c-5-3.125-6.515-9.703-3.391-14.703c3.125-4.992,9.703-6.516,14.703-3.391l85.326,53.335c5,3.117,6.515,9.703,3.391,14.694
		C209.682,190.222,206.198,191.995,202.651,191.995z"/>
</g>
<g>
	<path style="fill:#ED5564;" d="M117.325,95.997c-17.64,0-31.999,14.351-31.999,32c0,17.64,14.359,31.999,31.999,31.999
		s32-14.359,32-31.999C149.325,110.348,134.965,95.997,117.325,95.997z"/>
	<path style="fill:#ED5564;" d="M202.651,149.332c-17.64,0-31.999,14.352-31.999,32c0,17.64,14.359,32,31.999,32
		c17.656,0,32-14.359,32-32C234.651,163.683,220.307,149.332,202.651,149.332z"/>
	<path style="fill:#ED5564;" d="M266.649,85.334c-17.64,0-31.999,14.351-31.999,31.999c0,17.64,14.359,31.999,31.999,31.999
		c17.656,0,32-14.359,32-31.999C298.649,99.685,284.306,85.334,266.649,85.334z"/>
</g>
<path style="fill:#656D78;" d="M469.317,373.335H85.326c-5.891,0-10.672,4.766-10.672,10.656v42.655
	c0,5.906,4.781,10.688,10.672,10.688h383.991c5.891,0,10.672-4.781,10.672-10.688v-42.655
	C479.989,378.1,475.208,373.335,469.317,373.335z"/>
<path style="fill:#DA4453;" d="M149.325,330.648c-17.641,0-32,14.375-32,32v85.342c0,17.655,14.359,31.998,32,31.998
	c17.64,0,31.999-14.343,31.999-31.998v-85.342C181.324,345.023,166.965,330.648,149.325,330.648z"/>
<path style="fill:#ED5564;" d="M202.651,298.649c-17.64,0-31.999,14.374-31.999,31.999v149.34c0,17.656,14.359,32,31.999,32
	c17.656,0,32-14.344,32-32v-149.34C234.651,313.023,220.307,298.649,202.651,298.649z"/>
<path style="fill:#DA4453;" d="M405.319,330.648c-17.641,0-32,14.375-32,32v85.342c0,17.655,14.359,31.998,32,31.998
	c17.64,0,31.998-14.343,31.998-31.998v-85.342C437.317,345.023,422.959,330.648,405.319,330.648z"/>
<path style="fill:#ED5564;" d="M351.991,298.649c-17.655,0-31.998,14.374-31.998,31.999v149.34c0,17.656,14.343,32,31.998,32
	c17.641,0,32-14.344,32-32v-149.34C383.991,313.023,369.632,298.649,351.991,298.649z"/>
<g>
	<path style="fill:#434A54;" d="M479.989,394.646c-2.734,0-5.469,1.062-7.547,3.125c-4.172,4.172-4.172,10.938,0,15.094
		c2.078,2.094,4.812,3.125,7.547,3.125V394.646z"/>
	<path style="fill:#434A54;" d="M74.654,394.646v21.344c2.734,0,5.469-1.031,7.547-3.125c4.171-4.156,4.171-10.922,0-15.094
		C80.123,395.709,77.389,394.646,74.654,394.646z"/>
</g>
</svg>